<?xml version="1.0" standalone="no"?>
<!DOCTYPE svg PUBLIC "-//W3C//DTD SVG 20010904//EN"
 "http://www.w3.org/TR/2001/REC-SVG-20010904/DTD/svg10.dtd">
<svg version="1.0" xmlns="http://www.w3.org/2000/svg"
 width="1024.000000pt" height="1024.000000pt" viewBox="0 0 1024.000000 1024.000000"
 preserveAspectRatio="xMidYMid meet">

<g transform="translate(0.000000,1024.000000) scale(0.100000,-0.100000)"
fill="#000000" stroke="none">
<path d="M1796 6275 c-263 -55 -496 -199 -644 -400 -176 -239 -225 -557 -140
-919 l21 -90 37 106 c52 147 91 227 167 343 152 230 366 390 641 480 46 15 81
29 79 31 -2 3 -45 -9 -95 -25 -381 -125 -664 -415 -800 -821 l-28 -83 -17 77
c-91 412 -7 759 242 1007 303 302 741 380 1159 207 l72 -30 0 -81 c-1 -186
-92 -463 -205 -622 -115 -161 -235 -241 -575 -380 -435 -177 -540 -297 -569
-645 -6 -69 -8 -75 -30 -78 -39 -6 -43 8 -31 119 24 227 84 436 178 631 139
284 321 474 624 649 56 32 99 59 94 59 -34 0 -275 -156 -378 -244 -287 -245
-482 -648 -528 -1091 -11 -108 -11 -110 11 -128 19 -15 25 -16 43 -4 17 12 22
29 28 98 16 187 55 294 139 380 94 96 212 163 454 259 344 135 491 249 609
471 74 139 135 347 150 508 9 98 4 105 -88 141 -147 58 -256 81 -411 85 -97 3
-161 0 -209 -10z"/>
<path d="M4860 5620 l0 -380 65 0 65 0 0 380 0 380 -65 0 -65 0 0 -380z"/>
<path d="M5090 5620 l0 -380 65 0 65 0 0 380 0 380 -65 0 -65 0 0 -380z"/>
<path d="M8940 5620 l0 -380 60 0 60 0 0 174 c0 101 5 186 11 205 13 37 53 61
104 61 91 0 105 -35 105 -265 l0 -175 66 0 67 0 -5 203 c-4 191 -5 206 -29
252 -32 66 -65 88 -138 93 -73 5 -123 -10 -156 -49 l-25 -31 0 146 0 146 -60
0 -60 0 0 -380z"/>
<path d="M3331 5923 c11 -38 59 -205 107 -373 l88 -305 66 -3 67 -3 20 68 c20
69 118 407 130 452 5 18 28 -48 86 -247 l78 -272 63 0 63 0 11 38 c5 20 52
189 103 375 l93 337 -67 0 -67 0 -70 -282 c-68 -273 -70 -281 -81 -243 -6 22
-42 148 -79 280 l-69 240 -56 3 -56 3 -20 -68 c-11 -37 -45 -158 -76 -268 -31
-110 -59 -207 -62 -215 -3 -10 -151 516 -153 548 0 1 -31 2 -69 2 l-69 0 19
-67z"/>
<path d="M7460 5616 l0 -376 65 0 65 0 0 135 0 135 88 0 c158 1 228 31 277
121 24 46 27 58 23 133 -2 70 -7 89 -30 124 -15 22 -49 54 -75 69 -47 27 -51
28 -230 31 l-183 4 0 -376z m333 244 c37 -18 57 -58 57 -112 0 -86 -48 -118
-175 -118 l-85 0 0 126 0 126 88 -4 c48 -3 100 -11 115 -18z"/>
<path d="M8655 5921 l-50 -6 -3 -67 -3 -68 -49 0 -50 0 0 -55 0 -55 50 0 50 0
0 -155 c0 -171 8 -206 55 -243 44 -35 101 -46 163 -32 38 8 52 16 48 25 -3 8
-8 29 -11 47 -6 32 -8 33 -52 33 -35 0 -49 5 -64 24 -17 20 -19 40 -19 162 l0
139 70 0 70 0 0 55 0 55 -70 0 -70 0 0 75 c0 41 -3 74 -7 73 -5 0 -30 -4 -58
-7z"/>
<path d="M4470 5791 c-147 -45 -220 -200 -175 -369 39 -144 181 -223 324 -182
51 14 105 56 129 99 l22 38 -43 17 c-23 9 -45 16 -49 16 -3 0 -22 -16 -41 -35
-31 -31 -41 -35 -90 -35 -61 0 -96 21 -122 70 -31 61 -33 60 171 60 l187 0 -5
78 c-9 158 -104 253 -248 251 -19 0 -46 -4 -60 -8z m131 -118 c29 -17 59 -67
59 -97 0 -14 -17 -16 -126 -16 l-126 0 6 33 c3 18 21 46 41 65 27 25 43 32 76
32 22 0 54 -8 70 -17z"/>
<path d="M5570 5790 c-46 -8 -75 -25 -94 -52 -16 -22 -16 -22 -16 10 l0 32
-62 0 -63 0 -2 -270 -2 -270 64 0 64 0 3 196 3 196 28 24 c20 17 40 24 72 24
32 0 52 -7 72 -24 l28 -24 3 -196 3 -196 65 0 66 0 -4 208 c-3 191 -5 210 -25
249 -41 77 -114 111 -203 93z"/>
<path d="M6056 5788 c-61 -17 -140 -100 -160 -167 -60 -204 57 -391 245 -391
89 0 177 50 215 122 14 26 13 27 -35 43 l-48 16 -36 -36 c-31 -31 -41 -35 -87
-35 -77 0 -120 31 -141 102 l-8 28 191 0 191 0 -5 75 c-10 154 -89 243 -220
251 -35 2 -81 -2 -102 -8z m165 -134 c16 -16 31 -44 35 -61 l7 -33 -128 0
-127 0 6 33 c3 18 21 46 42 66 33 31 40 33 86 29 38 -4 57 -12 79 -34z"/>
<path d="M6578 5786 c-62 -22 -89 -45 -110 -93 -34 -77 -12 -155 55 -189 17
-10 70 -28 117 -41 112 -30 140 -68 84 -112 -50 -39 -143 -18 -167 37 -12 27
-12 27 -74 17 l-62 -10 18 -41 c57 -126 249 -166 370 -76 60 45 79 137 41 199
-24 40 -73 66 -176 92 -101 26 -124 54 -85 102 27 33 90 33 125 0 14 -14 26
-31 26 -38 0 -9 7 -12 18 -10 9 3 38 8 64 12 l47 6 -11 30 c-33 96 -173 153
-280 115z"/>
<path d="M7078 5791 c-91 -30 -146 -106 -133 -186 9 -64 49 -100 138 -126 150
-43 166 -53 154 -101 -18 -69 -156 -61 -189 12 -7 17 -18 28 -24 26 -6 -2 -33
-8 -58 -11 -45 -7 -47 -9 -41 -34 9 -39 56 -92 100 -115 48 -25 144 -32 203
-16 61 16 119 71 130 123 21 103 -26 161 -159 196 -130 34 -151 51 -125 102
26 52 122 45 151 -11 14 -27 15 -27 72 -18 31 5 59 10 60 12 2 1 -7 23 -20 47
-32 60 -94 97 -172 104 -33 2 -72 0 -87 -4z"/>
<path d="M8134 5770 c-50 -25 -78 -54 -98 -102 -18 -41 -17 -42 57 -53 40 -6
46 -5 52 14 11 35 54 61 100 61 53 0 84 -23 91 -70 l6 -36 -113 -17 c-62 -9
-129 -25 -148 -35 -105 -54 -110 -200 -10 -274 33 -25 125 -34 173 -18 21 7
53 26 72 42 l34 30 0 -36 0 -36 55 0 55 0 0 188 c0 257 -16 306 -112 347 -55
22 -163 20 -214 -5z m206 -297 c-1 -45 -36 -110 -69 -127 -43 -23 -106 -21
-131 4 -27 27 -26 71 3 98 19 18 105 41 190 51 4 1 7 -11 7 -26z"/>
<path d="M2815 5630 c-147 -292 -362 -532 -585 -653 -97 -53 -202 -92 -412
-152 -108 -31 -219 -70 -257 -90 -110 -58 -207 -149 -252 -236 l-19 -38 63
-45 c80 -57 194 -118 281 -151 115 -43 200 -58 341 -58 159 0 281 29 422 98
357 176 563 516 563 928 0 142 -32 296 -89 429 l-18 43 -38 -75z m103 -139
c23 -86 26 -115 26 -266 0 -153 -3 -180 -27 -270 -48 -177 -120 -306 -244
-436 -209 -218 -507 -331 -795 -300 -174 19 -393 108 -535 216 l-43 33 38 58
c52 81 140 156 236 203 46 22 162 62 266 92 278 78 416 142 566 263 150 121
313 331 429 556 l18 35 20 -44 c10 -24 30 -87 45 -140z"/>
<path d="M3390 4630 l0 -380 168 0 c187 0 249 12 303 57 62 53 87 160 55 237
-15 35 -65 79 -104 91 -22 6 -22 7 10 28 100 68 96 226 -8 299 -52 37 -119 48
-285 48 l-139 0 0 -380z m330 245 c56 -29 63 -125 13 -165 -22 -17 -41 -20
-122 -20 l-96 0 0 100 0 100 88 0 c58 0 98 -5 117 -15z m38 -322 c35 -26 50
-81 32 -123 -20 -48 -54 -60 -172 -60 l-103 0 2 102 c1 57 3 105 3 107 0 2 47
2 105 -1 85 -4 111 -9 133 -25z"/>
<path d="M5070 4980 c-27 -27 -25 -66 5 -95 31 -32 86 -34 115 -5 26 26 26 81
2 103 -27 24 -97 22 -122 -3z"/>
<path d="M4170 4791 c-52 -16 -91 -43 -114 -79 -42 -63 -39 -73 24 -88 30 -7
55 -12 55 -11 17 59 71 94 128 83 19 -3 41 -14 50 -24 15 -17 33 -82 23 -82
-3 0 -52 -7 -108 -15 -171 -26 -218 -59 -226 -159 -5 -64 13 -103 64 -142 65
-50 198 -41 250 17 l19 21 5 -28 c5 -28 8 -29 63 -32 l57 -3 0 175 c0 215 -10
268 -59 317 -52 52 -152 74 -231 50z m165 -323 c-12 -59 -16 -66 -51 -97 -84
-75 -214 -4 -146 79 19 23 100 48 165 49 38 1 39 1 32 -31z"/>
<path d="M4652 4779 c-59 -29 -85 -70 -90 -139 -4 -52 -2 -60 28 -93 26 -30
48 -42 119 -63 121 -35 135 -44 139 -81 4 -40 -27 -63 -86 -63 -35 0 -49 6
-73 29 -16 16 -29 37 -29 46 0 11 -6 15 -17 11 -10 -3 -39 -8 -65 -11 l-46 -7
11 -32 c29 -83 94 -127 203 -134 61 -4 80 -1 126 20 69 32 99 76 100 148 2 85
-52 133 -187 166 -38 9 -78 24 -87 32 -41 35 -4 92 61 92 41 0 91 -31 91 -56
0 -12 10 -13 53 -8 28 4 56 10 60 14 14 12 -23 79 -57 104 -68 51 -179 62
-254 25z"/>
<path d="M5461 4787 c-18 -7 -51 -28 -73 -47 -124 -103 -124 -331 -2 -439 110
-96 300 -74 369 43 34 58 32 72 -11 80 -19 4 -41 9 -49 12 -7 3 -22 -9 -34
-29 -53 -87 -188 -75 -227 19 -18 43 -18 147 0 182 29 56 63 77 123 77 49 0
58 -3 83 -31 15 -17 29 -37 32 -44 3 -11 15 -10 62 1 l57 14 -28 55 c-41 78
-101 114 -197 117 -39 1 -86 -3 -105 -10z"/>
<path d="M5965 4781 c-83 -37 -121 -117 -94 -195 17 -48 60 -80 138 -102 101
-27 140 -45 146 -65 9 -29 -2 -55 -31 -67 -59 -27 -132 -4 -154 48 -8 20 -18
29 -29 26 -9 -3 -35 -8 -58 -11 -24 -4 -43 -12 -43 -18 1 -25 47 -93 79 -114
115 -77 292 -47 347 59 20 39 17 107 -6 145 -24 39 -72 65 -169 88 -104 25
-135 61 -91 105 14 14 33 20 65 20 39 0 48 -4 72 -35 25 -31 32 -34 63 -29 74
11 78 13 73 33 -9 33 -66 93 -107 112 -54 24 -148 24 -201 0z"/>
<path d="M5070 4515 l0 -265 65 0 65 0 0 265 0 265 -65 0 -65 0 0 -265z"/>
</g>
</svg>
