<?xml version="1.0" standalone="no"?>
<!DOCTYPE svg PUBLIC "-//W3C//DTD SVG 20010904//EN"
 "http://www.w3.org/TR/2001/REC-SVG-20010904/DTD/svg10.dtd">
<svg version="1.0" xmlns="http://www.w3.org/2000/svg"
 width="512.000000pt" height="512.000000pt" viewBox="0 0 512.000000 512.000000"
 preserveAspectRatio="xMidYMid meet">

<g transform="translate(0.000000,512.000000) scale(0.100000,-0.100000)"
fill="#000000" stroke="none">
<path d="M3465 5095 c-24 -23 -25 -31 -25 -135 0 -104 1 -112 25 -135 15 -16
36 -25 55 -25 19 0 40 9 55 25 24 23 25 31 25 135 0 104 -1 112 -25 135 -15
16 -36 25 -55 25 -19 0 -40 -9 -55 -25z"/>
<path d="M2415 4670 c-37 -14 -49 -41 -46 -93 1 -22 115 -143 153 -163 40 -20
56 -17 90 16 25 26 29 36 24 63 -10 49 -155 189 -193 186 -4 0 -17 -4 -28 -9z"/>
<path d="M4555 4661 c-55 -35 -144 -134 -151 -168 -5 -27 -1 -37 24 -63 34
-33 50 -36 90 -16 38 20 152 141 153 163 5 81 -54 124 -116 84z"/>
<path d="M3332 4624 c-262 -44 -519 -194 -682 -400 l-51 -64 -71 36 c-82 41
-214 85 -313 105 -103 21 -349 18 -455 -5 -452 -97 -809 -437 -920 -876 l-16
-65 -86 -22 c-382 -97 -657 -393 -724 -777 -19 -106 -14 -273 11 -375 66 -271
254 -511 495 -631 41 -20 96 -45 122 -55 l46 -17 -104 -203 c-110 -215 -116
-236 -93 -320 15 -56 91 -127 152 -144 88 -25 198 10 247 79 12 17 69 123 127
237 102 199 105 208 101 260 l-5 53 219 0 219 0 24 25 c14 13 25 31 25 40 0
12 17 15 105 15 l104 0 -24 -25 c-26 -25 -32 -63 -15 -95 6 -11 47 -39 93 -64
132 -73 131 -69 41 -90 -50 -12 -86 -27 -101 -42 -41 -41 -23 -114 32 -128 17
-4 83 8 182 34 85 23 163 40 172 38 20 -4 201 -101 201 -108 0 -7 -181 -104
-200 -108 -9 -2 -87 16 -174 38 -138 36 -162 40 -187 29 -34 -14 -49 -36 -49
-74 0 -42 38 -71 124 -91 90 -21 91 -17 -41 -90 -86 -47 -103 -65 -103 -109 0
-34 42 -75 76 -75 14 0 71 25 126 56 55 31 101 54 103 52 3 -2 -4 -33 -15 -69
-26 -85 -25 -115 5 -144 30 -31 73 -32 103 -5 22 20 26 33 80 230 l29 105 103
57 c56 32 104 58 106 58 2 0 4 -51 4 -114 l0 -114 -125 -119 c-110 -105 -125
-123 -125 -152 0 -42 38 -81 81 -81 25 0 45 13 100 67 l69 66 0 -122 c0 -116
1 -123 25 -146 32 -33 78 -33 110 0 24 23 25 30 25 146 l0 122 69 -66 c55 -54
75 -67 100 -67 43 0 81 39 81 82 0 29 -15 47 -125 152 l-125 119 0 113 c0 63
2 114 4 114 2 0 50 -26 106 -57 l103 -58 29 -105 c54 -196 59 -211 78 -230 28
-28 75 -26 105 5 30 29 31 59 5 144 -11 36 -18 67 -15 69 2 2 48 -21 103 -52
55 -31 112 -56 126 -56 34 0 76 41 76 75 0 44 -17 62 -103 109 -132 73 -131
69 -41 90 87 21 124 48 124 94 0 31 -28 67 -59 77 -12 3 -89 -12 -177 -35 -86
-23 -164 -40 -173 -38 -20 4 -201 101 -201 108 0 7 181 104 201 108 9 2 87
-16 174 -38 137 -36 161 -40 186 -29 34 14 49 36 49 74 0 42 -38 71 -123 91
-43 10 -74 21 -70 25 5 4 40 26 80 48 l72 41 110 0 c108 0 109 0 115 -25 13
-50 42 -55 321 -55 140 0 255 -2 255 -4 0 -3 -22 -51 -50 -107 -71 -144 -66
-214 18 -298 78 -78 183 -91 279 -35 53 31 70 57 193 297 l95 186 53 22 c29
12 83 43 120 69 305 215 397 601 224 935 -48 92 -181 228 -275 280 -76 41
-202 85 -247 85 -35 0 -40 7 -62 93 l-18 69 31 45 c79 114 146 295 169 458 39
277 -44 591 -218 821 -250 331 -669 497 -1080 428z m418 -174 c222 -55 439
-206 563 -393 110 -165 160 -332 161 -532 1 -154 -24 -274 -83 -401 l-37 -79
-44 65 c-118 174 -312 312 -527 376 -169 50 -421 43 -576 -16 -28 -11 -51 -19
-52 -17 -1 1 -12 31 -24 67 -62 173 -173 344 -312 474 l-81 76 36 49 c128 174
369 313 611 352 81 13 271 2 365 -21z m-1655 -300 c321 -36 587 -196 762 -457
51 -77 123 -223 123 -250 0 -5 -17 -17 -37 -27 -67 -32 -156 -101 -228 -178
-115 -122 -188 -265 -221 -430 l-17 -86 -66 -4 c-136 -10 -280 -80 -384 -185
-124 -125 -177 -249 -185 -429 -4 -119 15 -219 58 -305 l20 -39 -357 0 c-197
0 -399 5 -450 10 -119 13 -257 57 -358 116 -107 62 -254 211 -312 314 -117
209 -148 464 -83 680 22 75 46 102 159 179 93 64 202 106 322 126 60 9 99 21
111 32 9 10 24 52 33 94 67 329 267 591 560 735 145 71 240 95 445 113 8 0 56
-4 105 -9z m1604 -816 c302 -67 554 -333 602 -636 14 -83 31 -124 56 -132 10
-3 54 -10 99 -15 190 -23 347 -129 433 -291 42 -79 61 -160 61 -260 0 -135
-42 -255 -118 -339 -35 -39 -42 -42 -112 -51 -41 -5 -425 -10 -852 -10 -753 0
-778 1 -787 19 -14 25 -66 43 -94 32 -12 -5 -31 -18 -41 -30 -12 -14 -31 -21
-54 -21 -34 0 -34 0 -18 25 40 61 4 135 -66 135 -34 0 -47 -8 -97 -55 -32 -30
-61 -55 -64 -55 -4 0 -7 52 -7 115 0 135 -10 155 -80 155 -62 0 -80 -25 -80
-107 l-1 -68 -64 67 c-70 73 -133 190 -156 288 -15 67 -15 220 0 277 21 77
169 155 330 174 94 12 129 27 135 62 24 132 50 227 80 289 166 338 528 513
895 432z m-1645 -1866 c8 -29 13 -54 11 -56 -3 -3 -181 92 -194 104 -2 2 34 4
82 4 l85 0 16 -52z m182 41 c12 -20 115 -80 177 -104 l62 -23 3 -101 c1 -56 1
-101 -1 -101 -3 0 -51 26 -107 58 l-103 57 -28 100 c-16 55 -28 106 -29 113 0
15 16 16 26 1z m-1301 -94 c14 -13 25 -29 25 -36 0 -6 -45 -99 -101 -205 -104
-202 -112 -211 -170 -202 -13 2 -30 15 -38 29 -13 24 -10 34 88 222 56 108
110 201 119 207 28 16 51 11 77 -15z m3521 -1 c16 -15 24 -32 21 -44 -2 -10
-48 -102 -101 -204 -101 -194 -109 -203 -167 -194 -13 2 -30 15 -38 29 -13 24
-9 35 89 223 98 190 115 213 158 215 7 1 24 -11 38 -25z m-1586 -58 c0 -1 -5
-17 -11 -34 -9 -26 -29 -42 -107 -84 -53 -29 -100 -54 -104 -56 -5 -2 -8 37
-8 87 l0 91 115 0 c63 0 115 -2 115 -4z"/>
<path d="M4825 3575 c-16 -15 -25 -36 -25 -55 0 -19 9 -40 25 -55 23 -24 31
-25 135 -25 104 0 112 1 135 25 16 15 25 36 25 55 0 19 -9 40 -25 55 -23 24
-31 25 -135 25 -104 0 -112 -1 -135 -25z"/>
<path d="M1195 776 c-27 -13 -60 -34 -72 -47 -12 -13 -71 -122 -132 -241 -117
-228 -123 -249 -100 -332 15 -56 91 -128 152 -145 88 -25 198 10 247 79 12 17
69 122 126 235 110 215 116 236 93 320 -7 26 -28 56 -58 85 -74 73 -165 89
-256 46z m140 -161 c14 -13 25 -29 25 -36 0 -6 -45 -99 -101 -205 -104 -202
-112 -211 -170 -202 -13 2 -30 15 -38 29 -13 24 -9 34 88 223 99 190 116 213
159 215 7 1 24 -10 37 -24z"/>
<path d="M3595 776 c-27 -13 -60 -34 -72 -47 -12 -13 -71 -122 -132 -241 -117
-228 -123 -249 -100 -332 15 -56 91 -128 152 -145 88 -25 198 10 247 79 12 17
69 122 126 235 110 215 116 236 93 320 -7 26 -28 56 -58 85 -74 73 -165 89
-256 46z m140 -161 c14 -13 25 -29 25 -36 0 -6 -45 -99 -101 -205 -104 -202
-112 -211 -170 -202 -13 2 -30 15 -38 29 -13 24 -9 34 88 223 99 190 116 213
159 215 7 1 24 -10 37 -24z"/>
</g>
</svg>
